<?xml version="1.0" standalone="no"?>
<!DOCTYPE svg PUBLIC "-//W3C//DTD SVG 20010904//EN"
 "http://www.w3.org/TR/2001/REC-SVG-20010904/DTD/svg10.dtd">
<svg version="1.0" xmlns="http://www.w3.org/2000/svg"
 width="375.000000pt" height="375.000000pt" viewBox="0 0 375.000000 375.000000"
 preserveAspectRatio="xMidYMid meet">
<metadata>
Created by potrace 1.11, written by Peter Selinger 2001-2013
</metadata>
<g transform="translate(0.000000,375.000000) scale(0.100000,-0.100000)"
fill="#000000" stroke="none">
<path d="M540 3064 c-19 -9 -53 -39 -76 -67 l-40 -52 -113 -9 -114 -8 7 -61
c8 -76 32 -126 73 -152 21 -13 30 -25 27 -35 -17 -48 -24 -134 -25 -304 0
-105 -4 -261 -8 -346 -6 -119 -4 -160 6 -180 10 -21 10 -26 -2 -33 -8 -4 -15
-18 -14 -30 0 -21 1 -21 11 3 l11 25 7 -25 c11 -43 18 71 25 440 6 349 15 450
40 450 7 0 27 -13 44 -29 30 -28 31 -32 31 -111 0 -45 -9 -125 -19 -178 -30
-149 -41 -243 -42 -365 0 -62 -6 -176 -13 -255 -15 -168 -12 -196 22 -222 30
-24 63 -25 102 -5 40 21 60 53 60 98 0 50 -18 91 -79 178 -50 71 -61 102 -41
114 6 4 5 14 -4 28 -18 30 -5 236 25 378 12 57 24 151 28 209 l6 104 32 -29
c25 -24 128 -213 183 -340 10 -21 28 -106 37 -167 3 -23 9 -35 16 -31 6 4 8
-2 5 -15 -4 -14 -2 -20 5 -15 7 4 8 -11 4 -48 l-6 -54 19 25 c11 14 18 18 15
9 -3 -8 1 -27 8 -42 14 -27 14 -27 32 -7 23 25 35 25 35 0 0 -11 5 -20 10 -20
6 0 10 -9 10 -21 0 -11 5 -17 10 -14 6 4 10 -7 10 -24 0 -33 16 -42 23 -13 4
14 5 14 6 -3 1 -17 3 -18 11 -5 7 11 10 6 10 -20 1 -34 1 -34 14 -11 13 23 13
23 34 -21 38 -83 53 -161 64 -350 10 -183 10 -187 -11 -216 -12 -17 -45 -43
-75 -58 -35 -18 -62 -41 -80 -68 l-27 -41 28 -6 c39 -9 154 -10 193 -2 20 3
35 13 37 25 3 10 13 18 22 18 27 0 41 21 41 63 0 30 10 53 45 101 25 35 45 69
45 75 0 6 3 11 8 11 4 0 8 17 10 37 1 21 7 42 14 48 7 7 9 7 5 -1 -3 -6 0 -11
8 -11 18 0 18 -1 4 33 l-10 28 22 -19 22 -20 -12 23 c-7 13 -10 30 -7 38 3 8
1 26 -5 41 -8 22 -8 24 5 14 12 -10 13 -6 9 28 -6 46 14 79 37 58 13 -13 13
-10 -6 37 -5 13 -4 17 3 13 7 -5 9 1 5 15 -4 18 -2 20 14 14 86 -33 199 -28
285 13 23 12 44 19 47 16 2 -2 11 3 19 11 12 11 18 12 29 3 12 -9 13 -9 9 4
-9 22 89 54 111 37 12 -11 13 -10 9 2 -9 23 27 18 47 -6 9 -12 17 -17 18 -12
0 5 11 -1 26 -14 l25 -24 -20 44 c-11 25 -18 46 -16 48 2 2 20 -15 41 -37 20
-23 38 -40 41 -38 2 2 -4 20 -12 40 -13 32 -13 36 0 31 8 -4 15 -1 15 6 0 10
3 10 14 1 11 -9 16 -9 22 0 5 8 12 4 25 -12 l18 -24 -6 25 c-6 22 -4 21 26
-10 l31 -35 -6 28 c-3 15 -3 27 1 27 14 0 302 -295 318 -325 49 -97 36 -234
-26 -260 -18 -7 -45 -27 -60 -43 -24 -25 -26 -30 -13 -42 14 -11 14 -15 1 -33
-8 -12 -15 -24 -15 -28 0 -14 55 -29 108 -28 84 2 116 11 120 34 2 11 16 52
32 90 36 90 70 222 70 275 0 29 -11 61 -34 103 -19 34 -40 75 -46 91 -9 24 -8
27 5 22 19 -7 19 4 0 32 -12 16 -12 20 -3 17 9 -4 13 3 13 20 -1 14 -5 28 -8
32 -13 13 -7 25 9 19 15 -6 15 -4 3 10 -13 16 -12 16 8 5 22 -11 22 -11 11 16
-7 15 -18 36 -26 46 -21 25 -3 21 27 -5 l25 -23 -23 39 c-12 21 -19 41 -17 44
3 3 -2 11 -12 19 -16 12 -16 13 1 7 21 -7 21 -6 1 41 -14 34 -14 37 1 32 13
-6 14 -3 3 16 -6 12 -13 36 -14 52 -1 17 -3 30 -4 30 -1 0 -3 10 -4 23 -2 20
-1 21 15 6 16 -15 17 -14 12 5 -3 12 -9 24 -14 27 -5 3 -9 10 -9 16 0 7 6 6
15 -2 22 -18 20 7 -5 47 -16 27 -17 31 -3 26 13 -5 15 -2 9 13 -4 10 -9 24
-10 29 -1 6 -5 16 -9 23 -11 17 -5 15 44 -13 24 -14 49 -25 56 -25 6 0 24 -5
40 -11 15 -7 42 -13 60 -14 17 -2 37 -6 44 -11 9 -5 10 -2 6 9 -6 16 -4 16 23
2 37 -19 44 -19 36 1 -5 12 -1 14 15 9 33 -11 69 -13 63 -4 -2 4 5 13 16 19
16 9 25 8 37 -1 13 -11 17 -10 28 5 8 10 25 19 39 20 14 0 26 4 26 7 0 4 24 5
53 3 l52 -4 -30 16 c-42 22 -41 22 12 17 45 -5 47 -4 28 10 -19 16 -19 16 13
23 24 5 30 9 20 15 -9 6 -6 9 10 9 13 0 21 4 18 9 -4 5 0 12 6 14 10 4 9 8 -2
16 -13 9 -12 11 5 12 11 1 28 1 38 0 20 -3 23 15 5 22 -8 3 -6 6 4 6 11 1 15
6 12 16 -6 16 17 45 36 45 6 0 8 5 5 10 -3 6 -2 10 3 10 6 0 8 9 5 20 -3 12 0
20 6 20 7 0 9 5 6 10 -3 6 -2 10 4 10 6 0 14 12 17 28 4 15 14 35 22 45 14 16
11 17 -47 17 -85 0 -184 -24 -321 -78 -220 -86 -280 -94 -495 -66 -201 26
-521 34 -815 21 -376 -17 -372 -17 -530 38 -74 25 -154 57 -177 71 -63 36
-157 127 -240 232 -93 116 -124 134 -248 139 -67 2 -99 -1 -125 -13z m-240
-1174 c0 -5 -7 -10 -15 -10 -8 0 -15 5 -15 10 0 6 7 10 15 10 8 0 15 -4 15
-10z m151 -151 c42 -57 63 -115 53 -145 -18 -51 -94 -72 -115 -33 -13 25 3
250 17 236 3 -2 23 -28 45 -58z"/>
</g>
</svg>
